<svg width="200" height="200" viewBox="0 0 200 200" fill="none" xmlns="http://www.w3.org/2000/svg">
<path d="M138.555 42.94H105.825V36.64C112.995 34.14 118.145 27.34 118.145 19.32C118.145 9.17997 109.925 0.969971 99.7949 0.969971C89.6649 0.969971 81.4449 9.18997 81.4449 19.32C81.4449 27.34 86.5949 34.14 93.7649 36.64V42.94H61.0349C27.6549 42.94 0.504883 70.09 0.504883 103.47C0.504883 136.85 27.6549 164 61.0349 164H138.555C171.925 164 199.085 136.85 199.085 103.47C199.085 70.09 171.935 42.94 138.555 42.94ZM99.7949 13.03C103.265 13.03 106.085 15.85 106.085 19.32C106.085 22.79 103.265 25.61 99.7949 25.61C96.3249 25.61 93.5049 22.79 93.5049 19.32C93.5049 15.85 96.3249 13.03 99.7949 13.03ZM138.555 151.93H61.0349C34.3149 151.93 12.5749 130.19 12.5749 103.47C12.5749 76.75 34.3149 55.01 61.0349 55.01H138.555C165.275 55.01 187.015 76.75 187.015 103.47C187.015 130.19 165.275 151.93 138.555 151.93Z" fill="#2E4AEF"/>
<path d="M57.035 71.6499C40.505 71.6499 27.105 85.0499 27.105 101.58C27.105 118.11 40.505 131.51 57.035 131.51C73.565 131.51 86.965 118.11 86.965 101.58C86.965 85.0499 73.565 71.6499 57.035 71.6499ZM57.035 119.44C47.185 119.44 39.175 111.43 39.175 101.58C39.175 91.7299 47.185 83.7199 57.035 83.7199C66.885 83.7199 74.895 91.7299 74.895 101.58C74.895 111.43 66.885 119.44 57.035 119.44Z" fill="#2E4AEF"/>
<path d="M142.555 71.6499C126.025 71.6499 112.625 85.0499 112.625 101.58C112.625 118.11 126.025 131.51 142.555 131.51C159.085 131.51 172.485 118.11 172.485 101.58C172.485 85.0499 159.085 71.6499 142.555 71.6499ZM142.555 119.44C132.705 119.44 124.695 111.43 124.695 101.58C124.695 91.7299 132.705 83.7199 142.555 83.7199C152.405 83.7199 160.415 91.7299 160.415 101.58C160.415 111.43 152.405 119.44 142.555 119.44Z" fill="#2E4AEF"/>
<path d="M108.795 131.64C106.695 133.58 103.635 134.57 99.6948 134.57C95.7548 134.57 92.8048 133.62 90.7048 131.75C88.2248 129.53 84.4049 129.75 82.1948 132.24C79.9748 134.73 80.1948 138.54 82.6848 140.75C85.6948 143.43 91.0848 146.63 99.6948 146.63C108.305 146.63 113.955 143.3 116.985 140.5C119.435 138.24 119.585 134.42 117.315 131.98C115.045 129.54 111.235 129.39 108.795 131.65V131.64Z" fill="#2E4AEF"/>
</svg>
